<?xml version="1.0" standalone="no"?>
<!DOCTYPE svg PUBLIC "-//W3C//DTD SVG 20010904//EN"
 "http://www.w3.org/TR/2001/REC-SVG-20010904/DTD/svg10.dtd">
<svg version="1.0" xmlns="http://www.w3.org/2000/svg"
 width="128.000000pt" height="128.000000pt" viewBox="0 0 128.000000 128.000000"
 preserveAspectRatio="xMidYMid meet">
<metadata>
Created by potrace 1.14, written by Peter Selinger 2001-2017
</metadata>
<g transform="translate(0.000000,128.000000) scale(0.100000,-0.100000)"
fill="#000000" stroke="none">
<path d="M400 1193 c-40 -13 -59 -28 -80 -65 -64 -114 11 -271 131 -271 69 0
122 55 135 139 17 115 -90 229 -186 197z"/>
<path d="M794 1191 c-33 -15 -82 -78 -94 -122 -38 -139 85 -260 197 -194 58
34 101 131 87 193 -10 40 -43 96 -65 110 -26 17 -99 24 -125 13z"/>
<path d="M178 882 c-36 -4 -86 -58 -94 -100 -15 -80 50 -172 122 -172 97 0
152 102 108 196 -26 55 -77 83 -136 76z"/>
<path d="M1054 880 c-112 -25 -141 -197 -44 -254 100 -58 227 65 180 176 -24
57 -81 90 -136 78z"/>
<path d="M560 787 c-19 -6 -56 -32 -81 -57 -38 -36 -51 -57 -65 -109 -16 -57
-23 -67 -70 -102 -83 -61 -113 -111 -118 -197 -6 -94 74 -205 167 -231 60 -17
132 -9 181 20 50 29 72 29 127 2 99 -50 200 -38 280 34 100 90 94 259 -11 344
-23 19 -53 43 -66 54 -14 11 -27 33 -30 49 -13 76 -62 144 -128 178 -47 24
-133 31 -186 15z"/>
</g>
</svg>
